<svg xmlns="http://www.w3.org/2000/svg" version="1.1" xmlns:xlink="http://www.w3.org/1999/xlink" xmlns:svgjs="http://svgjs.com/svgjs" width="1440" height="560" preserveAspectRatio="none" viewBox="0 0 1440 560"><g mask="url(&quot;#SvgjsMask1949&quot;)" fill="none"><rect width="1440" height="560" x="0" y="0" fill="url(#SvgjsLinearGradient1950)"></rect><path d="M762.99-101.68C618.81-84.14 530 240.51 293.64 240.71 57.28 240.91-45.23 17.15-175.71 11.11" stroke="rgba(51,121,194,0.58)" stroke-width="2"></path><path d="M810.04-83.48C622.9-36.78 555.15 467.06 273.74 471.16-7.67 475.26-118.37 262.2-262.56 258.36" stroke="rgba(51,121,194,0.58)" stroke-width="2"></path><path d="M646.99-38.18C550.62-15.01 581.68 243.22 368.59 244.08 155.5 244.94-46.22 132.63-188.21 132.08" stroke="rgba(51,121,194,0.58)" stroke-width="2"></path><path d="M1096.87-109.7C989.94-108.5 891.87 9.69 686.13 9.71 480.38 9.73 480.76-60.29 275.38-60.29 70.01-60.29-31.19 9.46-135.36 9.71" stroke="rgba(51,121,194,0.58)" stroke-width="2"></path><path d="M554.09-60.26C441.47 20.17 503.16 432.78 309.13 436.17 115.09 439.56-43.87 196.58-180.8 189.77" stroke="rgba(51,121,194,0.58)" stroke-width="2"></path></g><defs><mask id="SvgjsMask1949"><rect width="1440" height="560" fill="#ffffff"></rect></mask><linearGradient x1="15.28%" y1="-39.29%" x2="84.72%" y2="139.29%" gradientUnits="userSpaceOnUse" id="SvgjsLinearGradient1950"><stop stop-color="rgba(205, 243, 234, 1)" offset="0"></stop><stop stop-color="rgba(157, 189, 253, 1)" offset="1"></stop></linearGradient></defs></svg>