<svg id="Layer_1" data-name="Layer 1" xmlns="http://www.w3.org/2000/svg" viewBox="0 0 309.2 251.43"><polygon points="113.29 36.91 110.19 53.75 107.55 56.39 99.13 56.39 95.77 59.75 95.77 68.17 67.55 96.39 59.14 96.39 55.77 99.76 55.77 108.17 53.39 110.55 36.84 114.46 0 77.62 3.26 59.9 5.77 57.39 14.29 57.39 17.77 53.91 17.77 45.39 44.77 18.39 53.29 18.39 56.77 14.91 56.77 6.39 59.07 4.09 76.38 0 113.29 36.91"/><polygon points="272.92 113.52 256.03 110.71 253.34 108.11 253.2 99.69 249.79 96.39 241.37 96.53 212.68 68.8 212.53 60.39 209.11 57.07 200.7 57.22 198.28 54.88 194.09 38.4 230.3 0.94 248.07 3.9 250.63 6.37 250.77 14.88 254.31 18.3 262.83 18.16 290.28 44.7 290.42 53.22 293.96 56.64 302.48 56.5 304.82 58.76 309.2 76 272.92 113.52"/><path d="M342.34,312.85c-1.25,1.25-3.61,1.3-6.87.29a50,50,0,0,1-9.76-4.54c-12.07-6.94-29.14-20.36-47.39-37.57-12.54-13.51-23.7-26.16-33-37.36L244,232.08l-1.31,1.59c-9.38,11.26-20.61,24-33.24,37.59-19.12,18-36.94,31.89-49.07,38.5a44.81,44.81,0,0,1-8,3.57c-3.26,1-5.62,1-6.87-.29s-1.3-3.61-.29-6.87a50,50,0,0,1,4.54-9.76c6.94-12.06,20.34-29.11,37.53-47.34,14.54-13.51,28.09-25.42,39.92-35.15.52-.44,1-.86,1.55-1.27l.58-.48c4.8-3.92,9.29-7.45,13.43-10.57l1.3-1,1.72-1.28c1.26-.92,2.49-1.8,3.67-2.63l6-6L303,143.13l12,12-46.25,46.25-5.27,5.27q-1.39,2.06-3,4.27l-1.22,1.68,1.55,1.27c11.79,9.72,25.29,21.59,39.77,35,18,19.1,31.85,36.9,38.46,49a44.47,44.47,0,0,1,3.59,8.05C343.64,309.24,343.59,311.6,342.34,312.85Z" transform="translate(-89.23 -62.61)"/><path d="M236,195l-11.59,11.59-.35.35-51.63-51.63,12-12,46.27,46.27,5.25,5.26-.36-.25Z" transform="translate(-89.23 -62.61)"/><polygon points="177.91 65.16 172.62 91.39 139.92 91.39 134.83 66.17 146.55 74.99 155.72 62.8 165.14 75.01 177.91 65.16"/></svg>