<svg xmlns="http://www.w3.org/2000/svg" viewBox="0 0 465.65 24.34"><defs><style>.cls-1{isolation:isolate;}.cls-2{mix-blend-mode:multiply;}.cls-3{fill:#fff;}.cls-4{fill:#fdfdfd;}.cls-5{fill:#fafafa;}.cls-6{fill:#f8f8f8;}.cls-7{fill:#f5f5f5;}.cls-8{fill:#f3f3f3;}.cls-9{fill:#f0f0f0;}.cls-10{fill:#eee;}.cls-11{fill:#ebebeb;}.cls-12{fill:#e9e9e9;}.cls-13{fill:#e6e6e6;}.cls-14{fill:#e4e4e4;}.cls-15{fill:#e2e2e2;}.cls-16{fill:#dfdfdf;}.cls-17{fill:#ddd;}.cls-18{fill:#dadada;}.cls-19{fill:#d8d8d8;}.cls-20{fill:#d5d5d5;}.cls-21{fill:#d3d3d3;}.cls-22{fill:#d0d0d0;}.cls-23{fill:#cecece;}.cls-24{fill:#ccc;}.cls-25{fill:#c9c9c9;}.cls-26{fill:#c7c7c7;}.cls-27{fill:#c4c4c4;}.cls-28{fill:#c2c2c2;}.cls-29{fill:#bfbfbf;}.cls-30{fill:#bdbdbd;}.cls-31{fill:#bababa;}.cls-32{fill:#b8b8b8;}.cls-33{fill:#b5b5b5;}.cls-34{fill:#b3b3b3;}</style></defs><g class="cls-1"><g id="Layer_1" data-name="Layer 1"><g class="cls-2"><path class="cls-3" d="M15.64,92.11C51.08,106.33,142,116.45,248.47,116.45S445.86,106.33,481.3,92.11Z" transform="translate(-15.64 -92.11)"/><path class="cls-4" d="M15.64,92.11c40.53,13.76,129,23.66,232.83,23.66s191.86-9.9,232.83-23.66Z" transform="translate(-15.64 -92.11)"/><path class="cls-5" d="M15.64,92.11c45.63,13.3,131.78,23,232.83,23,100.89,0,186.33-9.69,232.83-23Z" transform="translate(-15.64 -92.11)"/><path class="cls-6" d="M15.64,92.11C66.36,105,150.16,114.42,248.47,114.42c98.07,0,180.8-9.47,232.83-22.31Z" transform="translate(-15.64 -92.11)"/><path class="cls-7" d="M15.64,92.11c55.82,12.39,137.26,21.63,232.83,21.63,95.26,0,175.27-9.24,232.83-21.63Z" transform="translate(-15.64 -92.11)"/><path class="cls-8" d="M15.64,92.11c60.91,11.93,140,21,232.83,21,92.44,0,169.74-9,232.83-21Z" transform="translate(-15.64 -92.11)"/><path class="cls-9" d="M15.64,92.11a1342.28,1342.28,0,0,0,232.83,20.28c89.62,0,164.21-8.81,232.83-20.28Z" transform="translate(-15.64 -92.11)"/><path class="cls-10" d="M15.64,92.11c71.1,11,145.48,19.61,232.83,19.61,86.81,0,158.68-8.6,232.83-19.61Z" transform="translate(-15.64 -92.11)"/><path class="cls-11" d="M15.64,92.11C91.84,102.66,163.85,111,248.47,111c84,0,153.15-8.38,232.83-18.93Z" transform="translate(-15.64 -92.11)"/><path class="cls-12" d="M15.64,92.11c81.3,10.09,151,18.26,232.83,18.26,81.17,0,147.62-8.17,232.83-18.26Z" transform="translate(-15.64 -92.11)"/><path class="cls-13" d="M15.64,92.11c86.39,9.63,153.69,17.58,232.83,17.58,78.36,0,142.09-8,232.83-17.58Z" transform="translate(-15.64 -92.11)"/><path class="cls-14" d="M15.64,92.11c91.49,9.18,156.43,16.9,232.83,16.9C324,109,385,101.29,481.3,92.11Z" transform="translate(-15.64 -92.11)"/><path class="cls-15" d="M15.64,92.11c96.58,8.72,159.17,16.23,232.83,16.23,72.73,0,131-7.51,232.83-16.23Z" transform="translate(-15.64 -92.11)"/><path class="cls-16" d="M15.64,92.11c101.68,8.26,161.91,15.55,232.83,15.55,69.91,0,125.5-7.29,232.83-15.55Z" transform="translate(-15.64 -92.11)"/><path class="cls-17" d="M15.64,92.11C122.41,99.91,180.28,107,248.47,107c67.09,0,120-7.08,232.83-14.88Z" transform="translate(-15.64 -92.11)"/><path class="cls-18" d="M15.64,92.11c111.87,7.34,167.38,14.2,232.83,14.2,64.28,0,114.44-6.86,232.83-14.2Z" transform="translate(-15.64 -92.11)"/><path class="cls-19" d="M15.64,92.11c117,6.88,170.12,13.52,232.83,13.52,61.46,0,108.91-6.64,232.83-13.52Z" transform="translate(-15.64 -92.11)"/><path class="cls-20" d="M15.64,92.11C137.7,98.53,188.5,105,248.47,105c58.64,0,103.38-6.43,232.83-12.85Z" transform="translate(-15.64 -92.11)"/><path class="cls-21" d="M15.64,92.11c127.15,6,175.6,12.17,232.83,12.17,55.83,0,97.86-6.21,232.83-12.17Z" transform="translate(-15.64 -92.11)"/><path class="cls-22" d="M15.64,92.11c132.25,5.51,178.34,11.5,232.83,11.5,53,0,92.33-6,232.83-11.5Z" transform="translate(-15.64 -92.11)"/><path class="cls-23" d="M15.64,92.11c137.34,5,181.08,10.82,232.83,10.82,50.19,0,86.8-5.77,232.83-10.82Z" transform="translate(-15.64 -92.11)"/><path class="cls-24" d="M15.64,92.11c142.44,4.59,183.81,10.15,232.83,10.15,47.38,0,81.27-5.56,232.83-10.15Z" transform="translate(-15.64 -92.11)"/><path class="cls-25" d="M15.64,92.11c147.53,4.13,186.55,9.47,232.83,9.47,44.56,0,75.74-5.34,232.83-9.47Z" transform="translate(-15.64 -92.11)"/><path class="cls-26" d="M15.64,92.11c152.63,3.67,189.29,8.79,232.83,8.79,41.74,0,70.21-5.12,232.83-8.79Z" transform="translate(-15.64 -92.11)"/><path class="cls-27" d="M15.64,92.11c157.72,3.21,192,8.12,232.83,8.12,38.93,0,64.68-4.91,232.83-8.12Z" transform="translate(-15.64 -92.11)"/><path class="cls-28" d="M15.64,92.11c162.82,2.75,194.77,7.44,232.83,7.44,36.11,0,59.15-4.69,232.83-7.44Z" transform="translate(-15.64 -92.11)"/><path class="cls-29" d="M15.64,92.11c167.91,2.3,197.51,6.77,232.83,6.77,33.3,0,53.62-4.47,232.83-6.77Z" transform="translate(-15.64 -92.11)"/><path class="cls-30" d="M15.64,92.11c173,1.84,200.24,6.09,232.83,6.09C279,98.2,296.56,94,481.3,92.11Z" transform="translate(-15.64 -92.11)"/><path class="cls-31" d="M15.64,92.11c178.1,1.38,203,5.42,232.83,5.42,27.66,0,42.56-4,232.83-5.42Z" transform="translate(-15.64 -92.11)"/><path class="cls-32" d="M15.64,92.11c183.2.92,205.72,4.74,232.83,4.74,24.85,0,37-3.82,232.83-4.74Z" transform="translate(-15.64 -92.11)"/><path class="cls-33" d="M15.64,92.11c188.29.46,208.46,4.06,232.83,4.06,22,0,31.5-3.6,232.83-4.06Z" transform="translate(-15.64 -92.11)"/><path class="cls-34" d="M15.64,92.11c193.39,0,211.2,3.39,232.83,3.39,19.21,0,26-3.39,232.83-3.39Z" transform="translate(-15.64 -92.11)"/></g></g></g></svg>